<svg width="303" height="166" version="1.1" xmlns="http://www.w3.org/2000/svg" desc="Created with imagetracer.js version 1.2.6" ><path fill="rgb(214,218,221)" stroke="rgb(214,218,221)" stroke-width="1" opacity="1" d="M 162.5 37 L 164 37.5 L 164 45.5 L 163 45.5 L 162 42.5 L 162 40.5 L 163 38.5 L 162.5 37 Z " /><path fill="rgb(214,218,221)" stroke="rgb(214,218,221)" stroke-width="1" opacity="1" d="M 127.5 41 L 129.5 44 L 127.5 41 Z " /><path fill="rgb(214,218,221)" stroke="rgb(214,218,221)" stroke-width="1" opacity="1" d="M 166.5 43 L 170 45.5 L 168.5 46 L 166 45 L 166.5 43 Z " /><path fill="rgb(214,218,221)" stroke="rgb(214,218,221)" stroke-width="1" opacity="1" d="M 129.5 46 L 132 46.5 L 129.5 47 L 129.5 46 Z " /><path fill="rgb(214,218,221)" stroke="rgb(214,218,221)" stroke-width="1" opacity="1" d="M 139.5 46 L 142 46.5 L 139.5 47 L 139.5 46 Z " /><path fill="rgb(214,218,221)" stroke="rgb(214,218,221)" stroke-width="1" opacity="1" d="M 32.5 56 L 33.5 57 L 55.5 57 L 56.5 58 L 103.5 58 L 104.5 57 L 126.5 57 L 127.5 58 L 174.5 58 L 175.5 57 L 197.5 57 L 198.5 58 L 245.5 58 L 246.5 57 L 268.5 57 L 268.5 58 L 246.5 58 L 241.5 60 L 202 60 L 201.5 62 L 201 60.5 L 201.5 59 L 197.5 58 L 175.5 58 L 170.5 60 L 131 60 L 130.5 62 L 130 60.5 L 130.5 59 L 126.5 58 L 104.5 58 L 99.5 60 L 60 60 L 59.5 62 L 59 60.5 L 59.5 59 L 55.5 58 L 33.5 58 L 32.5 56 Z " /><path fill="rgb(214,218,221)" stroke="rgb(214,218,221)" stroke-width="1" opacity="1" d="M 63.5 62 L 96.5 62 L 97 64 L 92.5 67 L 68.5 67 L 66 66 Q 67.1 63.3 64.5 64 L 63.5 62 Z M 69 65 L 69 66 L 93 66 L 69 65 Z " /><path fill="rgb(214,218,221)" stroke="rgb(214,218,221)" stroke-width="1" opacity="1" d="M 134.5 62 L 167.5 62 L 168 64 L 163 67.5 Q 162.2 70.5 166 69 L 166 71 Q 162.3 69.5 163 72.5 L 162 72.5 L 161.5 71 L 137.5 71 L 137 69 L 161.5 69 L 162 67 L 139.5 67 L 137 66 Q 138.1 63.3 135.5 64 L 134.5 62 Z M 140 65 L 140 66 L 164 66 L 140 65 Z " /><path fill="rgb(214,218,221)" stroke="rgb(214,218,221)" stroke-width="1" opacity="1" d="M 205.5 62 L 238.5 62 L 239 64 L 234 67.5 Q 233.2 70.5 237 69 L 237 71 Q 232.5 69.3 234 74.5 L 233 74.5 L 232.5 71 L 208.5 71 L 208 69 L 232.5 69 L 233 67 L 210 66.5 L 235 65.5 L 209.5 65 L 208 65.5 Q 208.8 63.3 206.5 64 L 205.5 62 Z " /><path fill="rgb(214,218,221)" stroke="rgb(214,218,221)" stroke-width="1" opacity="1" d="M 66 69 L 94.5 69 L 95 71 L 66.5 71 L 66 69 Z " /><path fill="rgb(214,218,221)" stroke="rgb(214,218,221)" stroke-width="1" opacity="1" d="M 139.5 73 L 140 82.5 L 139 82.5 L 139.5 73 Z " /><path fill="rgb(214,218,221)" stroke="rgb(214,218,221)" stroke-width="1" opacity="1" d="M 68.5 75 L 69 84.5 L 68 84.5 L 68.5 75 Z " /><path fill="rgb(214,218,221)" stroke="rgb(214,218,221)" stroke-width="1" opacity="1" d="M 210.5 75 L 211 84.5 L 210 84.5 L 210.5 75 Z " /><path fill="rgb(214,218,221)" stroke="rgb(214,218,221)" stroke-width="1" opacity="1" d="M 78.5 78 L 78 79.5 L 77.5 83 L 77 79.5 L 78.5 78 Z " /><path fill="rgb(214,218,221)" stroke="rgb(214,218,221)" stroke-width="1" opacity="1" d="M 80.5 79 Q 83.5 80.5 80.5 82 L 79 81.5 L 81 80.5 L 80.5 79 Z " /><path fill="rgb(214,218,221)" stroke="rgb(214,218,221)" stroke-width="1" opacity="1" d="M 92.5 80 L 93 89.5 L 92 89.5 L 92.5 80 Z " /><path fill="rgb(214,218,221)" stroke="rgb(214,218,221)" stroke-width="1" opacity="1" d="M 163.5 82 L 164 91.5 L 163 91.5 L 163.5 82 Z " /><path fill="rgb(214,218,221)" stroke="rgb(214,218,221)" stroke-width="1" opacity="1" d="M 78.5 84 L 78 85.5 L 79 87.5 L 77 88.5 L 77 86.5 L 78.5 84 Z " /><path fill="rgb(214,218,221)" stroke="rgb(214,218,221)" stroke-width="1" opacity="1" d="M 234.5 84 L 235 93.5 L 234 93.5 L 234.5 84 Z " /><path fill="rgb(214,218,221)" stroke="rgb(214,218,221)" stroke-width="1" opacity="1" d="M 222.5 85 L 226 85.5 L 222 86.5 L 222 88.5 L 223 90.5 L 221 89.5 L 222 87.5 Q 219.8 86.3 222.5 85 Z " /><path fill="rgb(214,218,221)" stroke="rgb(214,218,221)" stroke-width="1" opacity="1" d="M 77.5 90 L 79 94.5 L 78 98 L 81 98.5 Q 79 102 77 97.5 L 78 94.5 L 77.5 90 Z " /><path fill="rgb(214,218,221)" stroke="rgb(214,218,221)" stroke-width="1" opacity="1" d="M 138.5 92 L 139 101.5 L 138 101.5 L 138.5 92 Z " /><path fill="rgb(214,218,221)" stroke="rgb(214,218,221)" stroke-width="1" opacity="1" d="M 67.5 94 L 68 103.5 L 67 103.5 L 67.5 94 Z " /><path fill="rgb(214,218,221)" stroke="rgb(214,218,221)" stroke-width="1" opacity="1" d="M 209.5 94 L 210 103.5 L 209 103.5 L 209.5 94 Z " /><path fill="rgb(214,218,221)" stroke="rgb(214,218,221)" stroke-width="1" opacity="1" d="M 222.5 95 L 222 96.5 L 221.5 102 L 221 96.5 L 222.5 95 Z " /><path fill="rgb(214,218,221)" stroke="rgb(214,218,221)" stroke-width="1" opacity="1" d="M 81.5 96 L 82.5 98 L 81.5 96 Z " /><path fill="rgb(214,218,221)" stroke="rgb(214,218,221)" stroke-width="1" opacity="1" d="M 223.5 97 L 226 97.5 L 223.5 98 L 223.5 97 Z " /><path fill="rgb(214,218,221)" stroke="rgb(214,218,221)" stroke-width="1" opacity="1" d="M 93.5 99 L 94 108.5 L 93 108.5 L 93.5 99 Z " /><path fill="rgb(214,218,221)" stroke="rgb(214,218,221)" stroke-width="1" opacity="1" d="M 164.5 101 L 165 110.5 L 164 110.5 L 164.5 101 Z " /><path fill="rgb(214,218,221)" stroke="rgb(214,218,221)" stroke-width="1" opacity="1" d="M 148.5 102 L 149.5 104 L 148.5 102 Z " /><path fill="rgb(214,218,221)" stroke="rgb(214,218,221)" stroke-width="1" opacity="1" d="M 221.5 103 L 222 105.5 L 221 105.5 L 221.5 103 Z " /><path fill="rgb(214,218,221)" stroke="rgb(214,218,221)" stroke-width="1" opacity="1" d="M 235.5 103 L 236 112.5 L 235 112.5 L 235.5 103 Z " /><path fill="rgb(214,218,221)" stroke="rgb(214,218,221)" stroke-width="1" opacity="1" d="M 77.5 108 L 78 110.5 L 77 110.5 L 77.5 108 Z " /><path fill="rgb(214,218,221)" stroke="rgb(214,218,221)" stroke-width="1" opacity="1" d="M 137.5 110 L 138 119.5 L 137 119.5 L 137.5 110 Z " /><path fill="rgb(214,218,221)" stroke="rgb(214,218,221)" stroke-width="1" opacity="1" d="M 77.5 112 L 79 114.5 L 77 115.5 L 77 113.5 L 77.5 112 Z " /><path fill="rgb(214,218,221)" stroke="rgb(214,218,221)" stroke-width="1" opacity="1" d="M 221.5 112 L 222 115.5 L 221 115.5 L 221.5 112 Z " /><path fill="rgb(214,218,221)" stroke="rgb(214,218,221)" stroke-width="1" opacity="1" d="M 66.5 113 L 67 122.5 L 66 122.5 L 66.5 113 Z " /><path fill="rgb(214,218,221)" stroke="rgb(214,218,221)" stroke-width="1" opacity="1" d="M 208.5 113 L 209 122.5 L 208 122.5 L 208.5 113 Z " /><path fill="rgb(214,218,221)" stroke="rgb(214,218,221)" stroke-width="1" opacity="1" d="M 79 116 L 81 116.5 L 79 117.5 L 79 116 Z " /><path fill="rgb(214,218,221)" stroke="rgb(214,218,221)" stroke-width="1" opacity="1" d="M 150.5 116 L 153 116.5 L 150.5 117 L 150.5 116 Z " /><path fill="rgb(214,218,221)" stroke="rgb(214,218,221)" stroke-width="1" opacity="1" d="M 94.5 118 L 95 127.5 L 94 127.5 L 94.5 118 Z " /><path fill="rgb(214,218,221)" stroke="rgb(214,218,221)" stroke-width="1" opacity="1" d="M 149.5 118 L 148.5 120 L 149.5 118 Z " /><path fill="rgb(214,218,221)" stroke="rgb(214,218,221)" stroke-width="1" opacity="1" d="M 77.5 119 L 78.5 121 L 77.5 119 Z " /><path fill="rgb(214,218,221)" stroke="rgb(214,218,221)" stroke-width="1" opacity="1" d="M 165.5 120 L 166 129.5 L 165 129.5 L 165.5 120 Z " /><path fill="rgb(214,218,221)" stroke="rgb(214,218,221)" stroke-width="1" opacity="1" d="M 148.5 121 L 153 121.5 L 148.5 122 L 148.5 121 Z " /><path fill="rgb(214,218,221)" stroke="rgb(214,218,221)" stroke-width="1" opacity="1" d="M 236.5 122 L 237 131.5 L 236 131.5 L 236.5 122 Z " /><path fill="rgb(214,218,221)" stroke="rgb(214,218,221)" stroke-width="1" opacity="1" d="M 77.5 123 L 79 130.5 L 77 129.5 L 77.5 123 Z " /><path fill="rgb(214,218,221)" stroke="rgb(214,218,221)" stroke-width="1" opacity="1" d="M 136.5 129 L 137 133 L 168.5 133 L 169 135 L 133 134.5 L 136 133 L 136.5 129 Z " /><path fill="rgb(214,218,221)" stroke="rgb(214,218,221)" stroke-width="1" opacity="1" d="M 65.5 132 L 66.5 133 L 98 133 L 97.5 135 L 62.5 135 L 63.5 133 L 65.5 132 Z " /><path fill="rgb(214,218,221)" stroke="rgb(214,218,221)" stroke-width="1" opacity="1" d="M 207.5 132 L 208.5 133 L 240 133 L 239.5 135 L 204.5 135 L 205.5 133 L 207.5 132 Z " /><path fill="rgb(214,218,221)" stroke="rgb(214,218,221)" stroke-width="1" opacity="1" d="M 60.5 135 L 62.5 138 L 98.5 138 L 100 136.5 L 99.5 135 L 100.5 138 L 103 138 L 103.5 141 L 129 141 Q 127.5 137.3 130.5 138 L 132.5 138 L 169.5 138 L 171 136.5 L 170.5 135 L 171.5 138 L 173 138 L 173.5 141 L 200 141 Q 198.5 137.3 201.5 138 L 203.5 137 L 204.5 138 L 240.5 138 L 241.5 135 L 242.5 138 L 244 138 L 244.5 141 L 261.5 141 Q 264 142 263 146.5 L 262 146.5 Q 262.5 142 261.5 142 L 244.5 142 L 242.5 142 L 173.5 142 L 172.5 141 L 171.5 142 L 130.5 142 L 128.5 142 L 40 141.5 L 58 141 Q 56.3 136.9 60.5 138 L 60 136.5 L 60.5 135 Z " /><path fill="rgb(214,218,221)" stroke="rgb(214,218,221)" stroke-width="1" opacity="1" d="M 121.5 144 L 126.5 145 L 128.5 144 L 128.5 145 Q 126.3 144.3 127 146.5 L 126 146.5 Q 126.9 143.1 121.5 145 L 121.5 144 Z " /><path fill="rgb(214,218,221)" stroke="rgb(214,218,221)" stroke-width="1" opacity="1" d="M 133.5 144 L 135 144.5 L 132.5 146 L 133.5 144 Z " /><path fill="rgb(214,218,221)" stroke="rgb(214,218,221)" stroke-width="1" opacity="1" d="M 136.5 144 L 140 144.5 L 136.5 145 L 136.5 144 Z " /><path fill="rgb(214,218,221)" stroke="rgb(214,218,221)" stroke-width="1" opacity="1" d="M 146.5 144 L 150 144.5 L 146.5 145 L 146.5 144 Z " /><path fill="rgb(214,218,221)" stroke="rgb(214,218,221)" stroke-width="1" opacity="1" d="M 153.5 144 L 156 145.5 Q 157.3 150.8 154.5 152 L 153 151.5 L 155 151 L 155 145.5 L 153.5 145 L 153.5 144 Z " /><path fill="rgb(214,218,221)" stroke="rgb(214,218,221)" stroke-width="1" opacity="1" d="M 158.5 144 L 161 144.5 L 158.5 145 L 158.5 144 Z " /><path fill="rgb(214,218,221)" stroke="rgb(214,218,221)" stroke-width="1" opacity="1" d="M 163.5 144 L 166 145.5 Q 167.3 150.8 164.5 152 L 163 151.5 L 165 151 L 165 145.5 L 163.5 145 L 163.5 144 Z " /><path fill="rgb(214,218,221)" stroke="rgb(214,218,221)" stroke-width="1" opacity="1" d="M 167.5 144 L 171.5 145 L 173.5 144 L 173.5 145 L 171.5 146 L 167.5 145 L 167.5 144 Z " /><path fill="rgb(214,218,221)" stroke="rgb(214,218,221)" stroke-width="1" opacity="1" d="M 178.5 144 L 180 144.5 L 177.5 146 L 178.5 144 Z " /><path fill="rgb(214,218,221)" stroke="rgb(214,218,221)" stroke-width="1" opacity="1" d="M 130.5 146 L 131.5 148 L 130.5 146 Z " /><path fill="rgb(214,218,221)" stroke="rgb(214,218,221)" stroke-width="1" opacity="1" d="M 159.5 146 L 159 147.5 L 158.5 149 L 158 147.5 L 159.5 146 Z " /><path fill="rgb(214,218,221)" stroke="rgb(214,218,221)" stroke-width="1" opacity="1" d="M 175.5 146 L 176.5 148 L 175.5 146 Z " /><path fill="rgb(214,218,221)" stroke="rgb(214,218,221)" stroke-width="1" opacity="1" d="M 269.5 147 L 270 152.5 L 269 152.5 L 269.5 147 Z " /><path fill="rgb(214,218,221)" stroke="rgb(214,218,221)" stroke-width="1" opacity="1" d="M 129.5 149 L 130.5 151 L 121.5 152 L 121.5 151 Q 129.6 152.8 129.5 149 Z " /><path fill="rgb(214,218,221)" stroke="rgb(214,218,221)" stroke-width="1" opacity="1" d="M 142.5 149 L 143 151 L 145 151.5 L 143.5 152 L 142.5 149 Z " /><path fill="rgb(214,218,221)" stroke="rgb(214,218,221)" stroke-width="1" opacity="1" d="M 174.5 149 L 175.5 151 L 172.5 152 L 171.5 150 L 174 151 L 174.5 149 Z " /><path fill="rgb(214,218,221)" stroke="rgb(214,218,221)" stroke-width="1" opacity="1" d="M 138.5 150 L 137.5 152 L 136 151.5 L 138.5 150 Z " /><path fill="rgb(214,218,221)" stroke="rgb(214,218,221)" stroke-width="1" opacity="1" d="M 148.5 150 L 147.5 152 L 146 151.5 L 148.5 150 Z " /><path fill="rgb(214,218,221)" stroke="rgb(214,218,221)" stroke-width="1" opacity="1" d="M 158.5 151 L 161 151.5 L 158.5 152 L 158.5 151 Z " /><path fill="rgb(214,218,221)" stroke="rgb(214,218,221)" stroke-width="1" opacity="1" d="M 167.5 151 L 170 151.5 L 167.5 152 L 167.5 151 Z " /><path fill="rgb(242,242,242)" stroke="rgb(242,242,242)" stroke-width="1" opacity="1" d="M 150.5 13 L 255.5 47 L 258.5 47 L 272 52.5 L 270 57 L 246.5 57 L 245.5 58 L 198.5 58 L 197.5 57 L 175.5 57 L 174.5 58 L 127.5 58 L 126.5 57 L 104.5 57 L 103.5 58 L 56.5 58 L 55.5 57 L 33.5 57 L 32 55.5 L 31 51 L 34.5 51 L 150.5 13 Z M 130 37 L 127 38 L 128 43 L 127 46 L 130 47 L 136 44 L 140 47 L 143 46 Q 145 47 144 45 L 142 43 Q 140 45 139 43 Q 138 39 142 40 Q 143 42 144 40 L 143 37 L 136 38 L 135 42 L 132 41 L 135 39 Q 134 36 130 37 Z M 145 37 L 145 46 Q 149 47 148 45 L 149 45 L 149 46 L 153 46 L 152 44 L 153 38 L 145 37 Z M 154 37 L 154 45 L 158 47 L 161 46 L 163 45 Q 162 48 167 46 L 169 46 Q 171 47 170 45 L 171 45 Q 170 48 174 46 L 174 37 L 171 37 L 169 41 L 167 37 L 159 37 L 159 43 L 157 43 L 157 37 L 154 37 Z " /><path fill="rgb(242,242,242)" stroke="rgb(242,242,242)" stroke-width="1" opacity="1" d="M 60 60 L 100.5 60 L 101 62 L 60.5 62 L 60 60 Z " /><path fill="rgb(242,242,242)" stroke="rgb(242,242,242)" stroke-width="1" opacity="1" d="M 131 60 L 171.5 60 L 172 62 L 131.5 62 L 131 60 Z " /><path fill="rgb(242,242,242)" stroke="rgb(242,242,242)" stroke-width="1" opacity="1" d="M 202 60 L 242.5 60 L 243 62 L 202.5 62 L 202 60 Z " /><path fill="rgb(242,242,242)" stroke="rgb(242,242,242)" stroke-width="1" opacity="1" d="M 68.5 65 L 93 65.5 L 68.5 66 L 68.5 65 Z " /><path fill="rgb(242,242,242)" stroke="rgb(242,242,242)" stroke-width="1" opacity="1" d="M 139.5 65 L 164 65.5 L 139.5 66 L 139.5 65 Z " /><path fill="rgb(242,242,242)" stroke="rgb(242,242,242)" stroke-width="1" opacity="1" d="M 209.5 65 L 235 65.5 L 209.5 66 L 209.5 65 Z " /><path fill="rgb(242,242,242)" stroke="rgb(242,242,242)" stroke-width="1" opacity="1" d="M 69 67 L 91.5 67 L 92 69 L 69.5 69 L 69 67 Z " /><path fill="rgb(242,242,242)" stroke="rgb(242,242,242)" stroke-width="1" opacity="1" d="M 140 67 L 161.5 67 L 162 69 L 140.5 69 L 140 67 Z " /><path fill="rgb(242,242,242)" stroke="rgb(242,242,242)" stroke-width="1" opacity="1" d="M 211 67 L 232.5 67 L 233 69 L 211.5 69 L 211 67 Z " /><path fill="rgb(242,242,242)" stroke="rgb(242,242,242)" stroke-width="1" opacity="1" d="M 69 71 L 92 71 L 92 89.5 L 93 90.5 L 94 127.5 L 95 133 L 66 133 L 66 123.5 L 67 122.5 L 67 104.5 L 68 103.5 L 69 71 Z M 78 76 L 78 78 L 77 80 L 78 84 L 77 87 L 77 91 L 78 95 L 77 98 L 79 100 Q 76 99 77 102 L 79 103 L 77 107 L 77 109 L 78 112 L 77 114 L 79 118 L 77 120 L 81 122 L 77 124 Q 75 129 79 131 L 79 129 L 83 129 L 79 127 L 83 126 L 82 125 L 83 123 L 82 119 L 83 116 L 81 115 L 83 111 L 82 109 L 83 107 L 81 106 L 82 101 L 83 98 L 82 96 L 83 93 L 81 88 L 83 83 L 82 81 L 81 81 L 79 81 L 83 79 L 78 76 Z " /><path fill="rgb(242,242,242)" stroke="rgb(242,242,242)" stroke-width="1" opacity="1" d="M 140 71 L 161.5 71 L 162 72.5 L 163 73.5 L 165 129.5 L 166 133 L 137 133 L 137 120.5 L 138 119.5 L 138 102.5 L 139 101.5 L 139 83.5 L 140 82.5 L 140 71 Z M 148 83 L 148 85 L 148 87 L 149 89 L 148 92 L 148 94 L 148 103 L 149 104 L 148 105 L 148 118 L 148 120 L 148 123 L 153 123 L 152 119 L 153 114 L 153 112 L 152 110 L 153 108 L 152 104 L 153 99 Q 150 98 151 102 L 150 102 Q 149 96 153 98 Q 154 95 151 96 L 151 95 Q 154 96 153 94 L 153 92 L 152 89 L 153 87 L 153 85 L 153 83 L 148 83 Z " /><path fill="rgb(242,242,242)" stroke="rgb(242,242,242)" stroke-width="1" opacity="1" d="M 211 71 L 232.5 71 L 233 74.5 L 234 75.5 L 234 93.5 L 235 94.5 L 235 112.5 L 236 113.5 L 236 131.5 L 237 132.5 L 208 133 L 211 71 Z M 223 85 L 221 89 L 222 91 L 221 93 L 222 95 L 221 97 Q 220 101 222 103 L 221 106 L 224 107 L 223 107 L 221 110 L 224 111 L 221 113 Q 219 117 224 116 L 224 117 Q 220 116 221 119 L 226 121 L 226 105 L 225 103 L 225 101 Q 227 102 226 99 L 223 99 L 226 98 L 225 96 L 226 92 L 226 90 Q 228 83 223 85 Z " /><path fill="rgb(242,242,242)" stroke="rgb(242,242,242)" stroke-width="1" opacity="1" d="M 61 135 L 98.5 135 L 100 136.5 L 98.5 138 L 62.5 138 L 61 135 Z " /><path fill="rgb(242,242,242)" stroke="rgb(242,242,242)" stroke-width="1" opacity="1" d="M 132.5 135 L 169.5 135 L 171 136.5 L 169.5 138 L 132.5 138 Q 129.5 136.5 132.5 135 Z " /><path fill="rgb(242,242,242)" stroke="rgb(242,242,242)" stroke-width="1" opacity="1" d="M 203.5 135 L 240.5 135 L 242 136.5 L 240.5 138 L 204.5 138 L 202 136.5 L 203.5 135 Z " /><path fill="rgb(242,242,242)" stroke="rgb(242,242,242)" stroke-width="1" opacity="1" d="M 129.5 141 L 130.5 142 L 171.5 142 L 173.5 142 L 242.5 142 L 243.5 141 L 244.5 142 L 262 142 L 262 147 L 269 147 L 269 153 L 33.5 153 L 33 152.5 L 33 147 L 40 147 L 40.5 142 L 128.5 142 L 129.5 141 Z M 121 144 L 121 152 L 132 151 L 133 151 Q 132 153 135 152 L 135 145 L 134 144 L 132 147 L 129 144 L 127 145 L 121 144 Z M 136 144 L 136 152 L 141 150 L 143 149 L 142 151 L 145 152 L 145 145 L 143 144 L 143 146 Q 140 143 136 144 Z M 146 144 L 146 152 L 149 151 L 151 152 Q 154 153 152 149 L 153 149 Q 151 153 155 152 Q 157 148 159 152 L 162 151 Q 163 148 159 149 Q 158 146 162 147 L 161 144 L 157 146 L 153 144 L 153 147 L 152 145 L 146 144 Z M 163 144 L 163 152 L 166 151 L 168 152 L 171 151 L 173 152 L 177 151 L 178 151 Q 177 153 180 152 L 180 145 L 179 144 L 177 147 L 173 144 L 171 144 L 167 145 L 163 144 Z " /><path fill="rgb(63,86,106)" stroke="rgb(63,86,106)" stroke-width="1" opacity="1" d="M 130.5 37 L 134 38.5 Q 134.8 40.8 132.5 40 L 131 39.5 Q 130.2 42.1 133.5 41 L 135 44.5 Q 133.4 47.5 128 46 L 129 42.5 L 127 39.5 L 130.5 37 Z M 130 43 L 130 44 L 132 44 L 130 43 Z " /><path fill="rgb(63,86,106)" stroke="rgb(63,86,106)" stroke-width="1" opacity="1" d="M 139.5 37 L 144 38 Q 145.3 41.7 139.5 40 L 138 42.5 L 141.5 44 Q 142.8 41.8 144 44.5 Q 143 47 138.5 46 L 136 45 Q 134.5 39.6 137.5 38 L 139.5 37 Z " /><path fill="rgb(63,86,106)" stroke="rgb(63,86,106)" stroke-width="1" opacity="1" d="M 145 38 L 151.5 38 L 153 39.5 L 152 44.5 L 152.5 46 L 148.5 44 L 148 46 L 145 46 L 145 38 Z M 148 40 Q 147 43 150 42 Q 151 39 148 40 Z " /><path fill="rgb(63,86,106)" stroke="rgb(63,86,106)" stroke-width="1" opacity="1" d="M 154 38 L 157 38 L 157 43.5 L 158.5 44 Q 161.3 42.6 160 38 Q 163.5 36.9 162 44.5 Q 161 47 156.5 46 Q 152.5 44.3 154 38 Z " /><path fill="rgb(63,86,106)" stroke="rgb(63,86,106)" stroke-width="1" opacity="1" d="M 164 38 Q 167.8 36.5 167 39.5 L 170 41 L 171.5 38 L 174 38 L 174 46 Q 169.9 47.7 171 43.5 L 170 43.5 Q 170.8 45.8 168.5 45 L 166 43.5 Q 167 47.3 164 46 L 164 38 Z " /><path fill="rgb(63,86,106)" stroke="rgb(63,86,106)" stroke-width="1" opacity="1" d="M 78.5 76 L 82 78.5 L 78.5 80 L 78 77.5 L 78.5 76 Z " /><path fill="rgb(63,86,106)" stroke="rgb(63,86,106)" stroke-width="1" opacity="1" d="M 78.5 81 L 79 83 Q 81.7 84.1 81 81.5 L 82 81.5 L 81 84.5 L 82 86.5 L 82 88.5 Q 83.3 94.6 80.5 94 L 80.5 95 L 82 95.5 L 81.5 98 Q 76.7 99.7 78 95.5 L 78 93.5 Q 76.7 88.8 79 87.5 L 78 85.5 L 78 83.5 L 78.5 81 Z M 80 90 L 81 92 Q 82 89 80 90 Z " /><path fill="rgb(63,86,106)" stroke="rgb(63,86,106)" stroke-width="1" opacity="1" d="M 149 83 L 153 84.5 L 151 85.5 L 153 86.5 L 149.5 87 L 149 84.5 L 149 83 Z " /><path fill="rgb(63,86,106)" stroke="rgb(63,86,106)" stroke-width="1" opacity="1" d="M 222.5 86 L 226 86.5 L 225 88.5 L 225.5 90 Q 221.1 91.5 222 88.5 L 222.5 86 Z " /><path fill="rgb(63,86,106)" stroke="rgb(63,86,106)" stroke-width="1" opacity="1" d="M 149 88 L 153 89.5 L 152 93.5 L 152.5 95 Q 147.3 96.8 149 91.5 L 149 89.5 L 149 88 Z M 151 89 Q 149 92 152 91 L 151 89 Z " /><path fill="rgb(63,86,106)" stroke="rgb(63,86,106)" stroke-width="1" opacity="1" d="M 222 91 Q 227.2 88.9 226 93.5 L 222 95 L 222 91 Z M 223 92 Q 222 95 225 94 Q 226 91 223 92 Z " /><path fill="rgb(63,86,106)" stroke="rgb(63,86,106)" stroke-width="1" opacity="1" d="M 149.5 96 L 153 97.5 L 150 98 L 150 102 L 151.5 102 L 151.5 100 Q 153.8 99.3 153 101.5 L 149.5 103 L 148 100.5 L 149 97.5 L 149.5 96 Z " /><path fill="rgb(63,86,106)" stroke="rgb(63,86,106)" stroke-width="1" opacity="1" d="M 222 96 L 226 96.5 L 223 97 Q 221.8 100 225.5 99 L 225.5 100 Q 221.8 99 223 102 Q 225.7 100.9 225 103.5 L 226 107.5 L 226 109.5 L 225 111.5 Q 227.3 112.7 226 117.5 L 226 119.5 L 225.5 121 L 222 118.5 Q 221.2 115.9 224.5 117 L 224.5 116 Q 220.3 117.3 222 112.5 L 225 110.5 L 222 110 Q 220.3 105.9 224.5 107 L 224.5 106 L 222 105.5 L 222 96 Z " /><path fill="rgb(63,86,106)" stroke="rgb(63,86,106)" stroke-width="1" opacity="1" d="M 80.5 99 L 82 99.5 L 81 101.5 L 81.5 103 L 78 102 Q 76.9 99.3 79.5 100 L 80.5 99 Z " /><path fill="rgb(63,86,106)" stroke="rgb(63,86,106)" stroke-width="1" opacity="1" d="M 78 104 Q 81.7 102.5 81 105.5 L 81.5 107 Q 76.3 108.5 78 104 Z " /><path fill="rgb(63,86,106)" stroke="rgb(63,86,106)" stroke-width="1" opacity="1" d="M 148.5 104 L 149.5 106 L 150.5 104 L 151.5 106 L 152.5 104 L 153 107 L 148 107 L 148.5 104 Z " /><path fill="rgb(63,86,106)" stroke="rgb(63,86,106)" stroke-width="1" opacity="1" d="M 78.5 108 L 80.5 108 Q 83.3 107.4 82 113.5 L 81.5 116 L 78 115.5 L 78 113.5 L 79 111.5 L 78.5 108 Z " /><path fill="rgb(63,86,106)" stroke="rgb(63,86,106)" stroke-width="1" opacity="1" d="M 149 108 L 152 109.5 L 153 111.5 L 153 113.5 L 152.5 116 L 151.5 114 L 151 116 L 148 114.5 Q 147.2 111.9 150.5 113 L 150.5 112 L 148 111.5 L 149 108 Z " /><path fill="rgb(63,86,106)" stroke="rgb(63,86,106)" stroke-width="1" opacity="1" d="M 80.5 117 L 82 117.5 L 81 119.5 L 82 126 Q 77.9 124.7 79 128 L 81.5 127 L 82 129 L 78.5 130 L 78 122 L 81 121.5 L 78 119.5 Q 77.3 117.3 79.5 118 L 80.5 117 Z " /><path fill="rgb(63,86,106)" stroke="rgb(63,86,106)" stroke-width="1" opacity="1" d="M 148.5 117 L 153 117.5 L 151.5 120 L 153 120.5 L 149 121 L 150 118.5 L 148.5 117 Z " /><path fill="rgb(63,86,106)" stroke="rgb(63,86,106)" stroke-width="1" opacity="1" d="M 148.5 122 L 153 122.5 L 148.5 123 L 148.5 122 Z " /><path fill="rgb(63,86,106)" stroke="rgb(63,86,106)" stroke-width="1" opacity="1" d="M 121 145 L 126 145.5 L 123 146.5 L 126 147 Q 127.1 149.7 124.5 149 L 124.5 150 L 126 150.5 L 121 151 L 121 145 Z " /><path fill="rgb(63,86,106)" stroke="rgb(63,86,106)" stroke-width="1" opacity="1" d="M 127 145 Q 130.8 143.5 130 146.5 L 132 147.5 L 133.5 145 L 135 145.5 L 135 151 Q 132.3 152.1 133 149.5 L 132 149.5 L 131.5 151 L 129 149.5 Q 129.7 152.1 127 151 L 127 145 Z " /><path fill="rgb(63,86,106)" stroke="rgb(63,86,106)" stroke-width="1" opacity="1" d="M 136 145 Q 140.6 143.8 142 146.5 Q 143.1 149.8 140.5 149 L 136 151 L 136 145 Z M 138 146 Q 137 149 140 148 Q 141 145 138 146 Z " /><path fill="rgb(63,86,106)" stroke="rgb(63,86,106)" stroke-width="1" opacity="1" d="M 143 145 L 145 145 L 145 151 L 143 151 L 143 145 Z " /><path fill="rgb(63,86,106)" stroke="rgb(63,86,106)" stroke-width="1" opacity="1" d="M 146 145 Q 150.6 143.8 152 146.5 L 151 149.5 L 151.5 151 L 148.5 150 L 146 151 L 146 145 Z M 148 146 Q 147 149 150 148 Q 151 145 148 146 Z " /><path fill="rgb(63,86,106)" stroke="rgb(63,86,106)" stroke-width="1" opacity="1" d="M 153 145 L 155 145 L 155 151 L 153 151 L 153 145 Z " /><path fill="rgb(63,86,106)" stroke="rgb(63,86,106)" stroke-width="1" opacity="1" d="M 157.5 145 Q 163.3 143.3 162 147 L 159.5 146 L 158 148.5 Q 159.3 151.3 160.5 149 Q 163.1 148.3 162 151 Q 157.4 152.3 156 149.5 Q 155.3 145.8 157.5 145 Z " /><path fill="rgb(63,86,106)" stroke="rgb(63,86,106)" stroke-width="1" opacity="1" d="M 163 145 L 165 145 L 165 151 L 163 151 L 163 145 Z " /><path fill="rgb(63,86,106)" stroke="rgb(63,86,106)" stroke-width="1" opacity="1" d="M 167.5 145 Q 171.9 143.5 171 146.5 Q 168.8 147.8 171.5 149 L 172 145 Q 175.8 143.5 175 146.5 L 177 147.5 L 178.5 145 L 180 145.5 L 180 151 Q 177.3 152.1 178 149.5 L 177 149.5 L 176.5 151 L 174 149.5 Q 174.8 151.8 172.5 151 L 170.5 151 L 166 150.5 L 169 149.5 L 166 147.5 L 167.5 145 Z " /><path fill="rgb(91,155,213)" stroke="rgb(91,155,213)" stroke-width="1" opacity="1" d="M 0 0 L 303 0 L 303 166 L 0 166 L 0 0 Z M 149 13 L 30 51 L 32 57 L 34 58 L 56 58 L 60 60 L 59 62 Q 63 61 65 64 Q 67 63 66 66 L 69 68 Q 70 70 66 69 Q 65 72 69 71 L 68 76 L 66 132 L 62 135 Q 59 134 60 137 L 61 138 L 58 138 L 58 141 L 40 141 L 40 147 L 33 147 L 33 153 L 34 153 L 270 153 L 270 147 L 263 147 Q 264 142 262 141 L 245 141 L 244 138 L 243 138 L 242 135 Q 239 136 240 133 L 237 133 L 237 123 L 236 122 L 236 104 L 235 103 L 235 85 L 234 84 L 234 72 L 237 71 Q 238 68 234 69 L 238 64 Q 240 65 239 62 L 244 62 L 244 60 L 242 60 L 247 58 L 269 58 Q 272 56 272 51 L 164 16 L 154 13 L 149 13 Z " /><path fill="rgb(91,155,213)" stroke="rgb(91,155,213)" stroke-width="1" opacity="1" d="M 133.5 37 L 134.5 39 L 133.5 37 Z " /><path fill="rgb(91,155,213)" stroke="rgb(91,155,213)" stroke-width="1" opacity="1" d="M 145.5 37 L 150 37.5 L 145.5 38 L 145.5 37 Z " /><path fill="rgb(91,155,213)" stroke="rgb(91,155,213)" stroke-width="1" opacity="1" d="M 154.5 37 L 157 37.5 L 154.5 38 L 154.5 37 Z " /><path fill="rgb(91,155,213)" stroke="rgb(91,155,213)" stroke-width="1" opacity="1" d="M 160.5 37 L 163 38.5 L 161.5 38 Q 158.1 37.1 160 42.5 L 159 42.5 Q 158 38 160.5 37 Z " /><path fill="rgb(91,155,213)" stroke="rgb(91,155,213)" stroke-width="1" opacity="1" d="M 154.5 44 L 155.5 46 L 154.5 44 Z " /><path fill="rgb(91,155,213)" stroke="rgb(91,155,213)" stroke-width="1" opacity="1" d="M 104.5 58 L 126.5 58 L 131 59.5 L 130 62 L 133.5 62 L 137 64 Q 135.9 66.7 138.5 66 L 140 69 Q 135.9 67.7 137 71 Q 140.8 69.5 140 72.5 L 139 73.5 L 139 91.5 L 138 92.5 L 138 109.5 L 137 110.5 L 137 128.5 L 136 133 L 131 135 L 131 138 L 129 138 L 128.5 141 L 103 141 Q 104.7 136.9 100.5 138 L 99.5 135 Q 96.9 135.7 98 133 L 95 132.5 L 95 118.5 L 94 117.5 L 94 99.5 L 93 98.5 L 93 80.5 L 92 79.5 L 92 71 Q 96.1 72.3 95 69 Q 91.3 70.5 92 67.5 L 97 64 L 97 62 L 102 62 L 102 60 L 100 59.5 L 104.5 58 Z " /><path fill="rgb(91,155,213)" stroke="rgb(91,155,213)" stroke-width="1" opacity="1" d="M 175.5 58 L 197.5 58 L 202 59.5 L 201 62 L 204.5 62 L 208 64 Q 206.9 66.7 209.5 66 L 211 69 Q 206.9 67.7 208 71 Q 212.5 69.3 211 74.5 L 210 75.5 L 208 131.5 L 206.5 133 L 202 135 L 202 138 L 200 138 L 199.5 141 L 173 141 Q 174.5 137.3 171.5 138 L 170.5 135 Q 167.9 135.7 169 133 L 166 132.5 L 166 120.5 L 165 119.5 L 165 101.5 L 164 100.5 L 164 82.5 L 163 81.5 L 163 71 Q 167.1 72.3 166 69 Q 162.3 70.5 163 67.5 L 168 64 L 168 62 L 172 62 L 172 60.5 L 171.5 59 L 175.5 58 Z " /><path fill="rgb(91,155,213)" stroke="rgb(91,155,213)" stroke-width="1" opacity="1" d="M 148.5 83 L 150 85.5 L 149.5 87 L 153 87.5 L 149.5 88 L 148 84.5 L 148.5 83 Z " /><path fill="rgb(91,155,213)" stroke="rgb(91,155,213)" stroke-width="1" opacity="1" d="M 224.5 93 L 225.5 95 L 224.5 93 Z " /><path fill="rgb(91,155,213)" stroke="rgb(91,155,213)" stroke-width="1" opacity="1" d="M 148.5 94 L 153 96.5 L 150.5 97 L 149 96.5 L 148.5 98 L 148.5 94 Z " /><path fill="rgb(91,155,213)" stroke="rgb(91,155,213)" stroke-width="1" opacity="1" d="M 151.5 101 L 152.5 103 L 151.5 101 Z " /><path fill="rgb(91,155,213)" stroke="rgb(91,155,213)" stroke-width="1" opacity="1" d="M 150.5 103 L 152 105.5 L 151 105.5 L 150.5 104 L 149.5 106 L 149 104.5 L 150.5 103 Z " /><path fill="rgb(91,155,213)" stroke="rgb(91,155,213)" stroke-width="1" opacity="1" d="M 78.5 107 L 82 107.5 L 78.5 108 L 78.5 107 Z " /><path fill="rgb(91,155,213)" stroke="rgb(91,155,213)" stroke-width="1" opacity="1" d="M 149.5 107 L 153 107.5 L 149.5 108 L 149.5 107 Z " /><path fill="rgb(91,155,213)" stroke="rgb(91,155,213)" stroke-width="1" opacity="1" d="M 170.5 147 L 171.5 149 L 170.5 147 Z " /><path fill="rgb(91,155,213)" stroke="rgb(91,155,213)" stroke-width="1" opacity="1" d="M 124.5 149 L 127 150.5 L 125.5 150 L 124.5 149 Z " /></svg>